<svg width="50" height="21" viewBox="0 0 50 21" fill="none" xmlns="http://www.w3.org/2000/svg">
<g clip-path="url(#clip0_12_2518)">
<path d="M46.6637 2.77778H37.1096C36.5376 1.11111 35.0083 0 33.216 0H22.4956C20.7034 0 19.1786 1.11111 18.6067 2.77778H3.37244C1.537 2.77778 0 4.25244 0 6.08789V14.6088C0 16.4448 1.537 17.8889 3.37244 17.8889H18.5984C19.1667 19.5556 20.6977 20.6667 22.4949 20.6667H33.2149C35.0123 20.6667 36.5453 19.5556 37.1139 17.8889H46.6637C48.4992 17.8889 50 16.4448 50 14.6088V6.08789C50 4.25244 48.4998 2.77778 46.6637 2.77778ZM22.4954 1.55556H33.2154C34.6682 1.55556 35.8889 2.69611 35.8889 4.14889V9.66667H35V5.46267C35 3.64678 33.536 2.22222 31.7202 2.22222H24.0136C23.3178 2.22222 22.6731 2.33333 22.1414 2.77778H20.2662C20.7304 2 21.5533 1.55556 22.4954 1.55556ZM30.7778 14.6088V11.3333H33.5556V15.1794C33.5556 16.1683 32.7086 17 31.7202 17H29.7548C30.3642 16.3333 30.7778 15.5326 30.7778 14.6088ZM30.7778 9.66667V6.08789C30.7778 5.13611 30.3402 4.22222 29.6976 3.66667H31.7201C32.709 3.66667 33.5554 4.47378 33.5554 5.46267V9.66667H30.7778ZM1.55556 14.6088V6.08789C1.55556 5.09956 2.38411 4.33333 3.37244 4.33333H27.4133C28.4011 4.33333 29.2222 5.09956 29.2222 6.08789V9.66667H25.8088C25.4429 8.44444 24.3216 7.57822 22.9981 7.57822C21.3787 7.57822 20.0612 8.89422 20.0612 10.5137C20.0612 12.1331 21.3787 13.4348 22.9981 13.4348C24.3216 13.4348 25.4429 12.5557 25.8088 11.3334H29.2222V14.6089C29.2222 15.5972 28.4017 16.4446 27.4133 16.4446H3.37244C2.38467 16.4444 1.55556 15.5971 1.55556 14.6088ZM23.3326 11.3333H24.6417C24.3327 12 23.7126 12.3496 22.9982 12.3496C21.977 12.3496 21.1458 11.5264 21.1458 10.5047C21.1458 9.48289 21.9764 8.65889 22.9982 8.65889C23.7129 8.65889 24.3329 9.11111 24.6417 9.66667H23.3326C22.8644 9.66667 22.4811 10.0319 22.4811 10.5C22.4811 10.9681 22.8643 11.3333 23.3326 11.3333ZM33.2154 19.2222H22.4954C21.5471 19.2222 20.7176 18.6667 20.2543 17.8889H22.221C22.7372 18.2222 23.3523 18.4444 24.0136 18.4444H31.7202C33.536 18.4444 35 16.9952 35 15.1794V11.3333H35.8889V16.5621C35.8889 18.0154 34.6682 19.2222 33.2154 19.2222ZM48.4444 14.6088C48.4444 15.5971 47.6516 16.4444 46.6637 16.4444H37.3333V10.533C37.3333 10.526 37.3344 10.5191 37.3344 10.5121C37.3344 10.5051 37.3333 10.4982 37.3333 10.4912V4.33333H46.6637C47.652 4.33333 48.4444 5.09956 48.4444 6.08789V14.6088Z" fill="#353738"/>
<path d="M10.93 7.57522C9.31055 7.57522 7.9931 8.89267 7.9931 10.5121C7.9931 12.1316 9.31055 13.449 10.93 13.449C12.55 13.449 13.8674 12.1316 13.8669 10.5121C13.8669 8.89267 12.5494 7.57522 10.93 7.57522ZM10.93 12.3646C9.90877 12.3646 9.07755 11.5339 9.07755 10.5121C9.07755 9.49033 9.90821 8.65967 10.93 8.65967C11.9518 8.65967 12.7824 9.49089 12.7824 10.5121C12.7824 11.5339 11.9512 12.3646 10.93 12.3646Z" fill="#353738"/>
<path d="M41.877 7.57522C40.2576 7.57522 38.9401 8.89267 38.9401 10.5121C38.9401 12.1316 40.2576 13.449 41.877 13.449C43.4965 13.449 44.8139 12.1316 44.8139 10.5121C44.8139 8.89267 43.4965 7.57522 41.877 7.57522ZM41.877 12.3646C40.8552 12.3646 40.0246 11.5339 40.0246 10.5121C40.0246 9.49033 40.8552 8.65967 41.877 8.65967C42.8988 8.65967 43.7295 9.49089 43.7295 10.5121C43.7295 11.5339 42.8988 12.3646 41.877 12.3646Z" fill="#353738"/>
</g>
<defs>
<clipPath id="clip0_12_2518">
<rect width="50" height="21" fill="white"/>
</clipPath>
</defs>
</svg>
