<svg width="39" height="52" viewBox="0 0 39 52" fill="none" xmlns="http://www.w3.org/2000/svg">
<g clip-path="url(#clip0_12_2623)">
<path d="M14.7961 13.5462C14.7331 15.6856 13.3736 17.7443 13.3736 17.7443C13.1216 14.9366 7.91568 14.8527 7.91568 14.8527C7.91568 14.8527 2.70976 14.9366 2.45775 17.7443C2.45775 17.7443 1.3403 16.0517 1.08498 14.144C0.978869 13.3447 1.02198 12.5085 1.36019 11.7427C2.50749 9.14327 5.74709 4.90487 5.68078 2.85284C5.61446 0.800808 7.91899 1.00568 7.91899 1.00568C7.91899 1.00568 10.2235 0.800808 10.1572 2.85284C10.0909 4.90487 13.3305 9.14327 14.4778 11.7427C14.7265 12.317 14.8127 12.935 14.7961 13.5462Z" stroke="#353738" stroke-miterlimit="10" stroke-linecap="round" stroke-linejoin="round"/>
<path d="M7.26573 46.0831C2.29855 45.8951 2.42787 44.6323 2.42787 44.6323C3.88022 31.954 2.51408 19.1918 2.50082 19.0507C2.78598 20.3034 3.85369 20.0818 4.38755 21.9122C4.99435 23.9843 6.90098 31.6014 7.26573 46.0831Z" stroke="#353738" stroke-miterlimit="10" stroke-linecap="round" stroke-linejoin="round"/>
<path d="M15.9301 45.1226C15.9301 45.1226 14.8492 46.1033 8.56226 46.1033C8.927 31.6081 10.8336 23.9809 11.4404 21.9088C11.8251 20.5889 12.4882 20.337 12.9359 19.8265C8.864 43.5542 15.9301 45.1226 15.9301 45.1226V45.1226Z" stroke="#353738" stroke-miterlimit="10" stroke-linecap="round" stroke-linejoin="round"/>
<path d="M12.9359 19.8299C12.4883 20.3404 11.8251 20.5923 11.4405 21.9122C10.8337 23.9877 8.92373 31.6115 8.5623 46.1067C8.52251 47.6583 8.50261 49.2905 8.50261 51H7.32548C7.32548 49.2804 7.30227 47.6415 7.26579 46.0832C6.90105 31.6048 4.99442 23.9844 4.38761 21.9122C3.85376 20.0818 2.78605 20.3035 2.50088 19.0508C2.42793 18.7317 2.40472 18.3153 2.45778 17.7443C2.70978 14.9366 7.9157 14.8527 7.9157 14.8527C7.9157 14.8527 13.1216 14.9366 13.3736 17.7443C13.4797 18.9366 13.2675 19.4538 12.9359 19.8299V19.8299Z" stroke="#353738" stroke-miterlimit="10" stroke-linecap="round" stroke-linejoin="round"/>
<path d="M14.7928 13.1735C14.7928 13.2977 14.7928 13.422 14.7961 13.5463C14.8757 19.4471 16.8022 21.7611 17.2797 29.4789C17.7672 37.3579 15.9302 45.126 15.9302 45.126" stroke="#353738" stroke-miterlimit="10" stroke-linecap="round" stroke-linejoin="round"/>
<path d="M2.42794 44.6325C2.42794 44.6325 0.763373 39.7157 1.02864 32.9248C1.29391 26.134 1.0817 14.1442 1.0817 14.1442" stroke="#353738" stroke-miterlimit="10" stroke-linecap="round" stroke-linejoin="round"/>
<path d="M23.8683 13.5462C23.9313 15.6856 25.2908 17.7443 25.2908 17.7443C25.5428 14.9366 30.7487 14.8527 30.7487 14.8527C30.7487 14.8527 35.9547 14.9366 36.2067 17.7443C36.2067 17.7443 37.3241 16.0517 37.5794 14.144C37.6856 13.3447 37.6424 12.5085 37.3042 11.7427C36.1569 9.14327 32.9173 4.90487 32.9836 2.85284C33.05 0.800808 30.7454 1.00568 30.7454 1.00568C30.7454 1.00568 28.4409 0.800808 28.5072 2.85284C28.5735 4.90487 25.3339 9.14327 24.1866 11.7427C23.9379 12.317 23.8517 12.935 23.8683 13.5462V13.5462Z" stroke="#353738" stroke-miterlimit="10" stroke-linecap="round" stroke-linejoin="round"/>
<path d="M31.3986 46.0831C36.3657 45.8951 36.2364 44.6323 36.2364 44.6323C34.7841 31.954 36.1502 19.1918 36.1635 19.0507C35.8783 20.3034 34.8106 20.0818 34.2767 21.9122C33.6699 23.9843 31.7633 31.6014 31.3986 46.0831Z" stroke="#353738" stroke-miterlimit="10" stroke-linecap="round" stroke-linejoin="round"/>
<path d="M22.7344 45.1226C22.7344 45.1226 23.8154 46.1033 30.1022 46.1033C29.7375 31.6081 27.8309 23.9809 27.2241 21.9088C26.8394 20.5889 26.1763 20.337 25.7286 19.8265C29.8005 43.5542 22.7344 45.1226 22.7344 45.1226V45.1226Z" stroke="#353738" stroke-miterlimit="10" stroke-linecap="round" stroke-linejoin="round"/>
<path d="M25.7284 19.8299C26.1761 20.3404 26.8393 20.5923 27.2239 21.9122C27.8307 23.9877 29.7406 31.6115 30.1021 46.1067C30.1419 47.6583 30.1618 49.2905 30.1618 51H31.3389C31.3389 49.2804 31.3621 47.6415 31.3986 46.0832C31.7633 31.6048 33.67 23.9844 34.2768 21.9122C34.8106 20.0818 35.8783 20.3035 36.1635 19.0508C36.2364 18.7317 36.2597 18.3153 36.2066 17.7443C35.9546 14.9366 30.7487 14.8527 30.7487 14.8527C30.7487 14.8527 25.5427 14.9366 25.2907 17.7443C25.1846 18.9366 25.3969 19.4538 25.7284 19.8299V19.8299Z" stroke="#353738" stroke-miterlimit="10" stroke-linecap="round" stroke-linejoin="round"/>
<path d="M23.8717 13.1735C23.8717 13.2977 23.8717 13.422 23.8683 13.5463C23.7888 19.4471 21.8622 21.7611 21.3848 29.4789C20.8973 37.3579 22.7343 45.126 22.7343 45.126" stroke="#353738" stroke-miterlimit="10" stroke-linecap="round" stroke-linejoin="round"/>
<path d="M36.2366 44.6325C36.2366 44.6325 37.9012 39.7157 37.6359 32.9248C37.3707 26.134 37.5829 14.1442 37.5829 14.1442" stroke="#353738" stroke-miterlimit="10" stroke-linecap="round" stroke-linejoin="round"/>
</g>
<defs>
<clipPath id="clip0_12_2623">
<rect width="39" height="52" fill="white"/>
</clipPath>
</defs>
</svg>
