<svg width="50" height="40" viewBox="0 0 50 40" fill="none" xmlns="http://www.w3.org/2000/svg">
<g clip-path="url(#clip0_12_2590)">
<path d="M49.8645 16.2454L39.1188 2.58917C39.0169 2.4599 38.8683 2.39323 38.708 2.36466C37.7789 1.1327 36.2432 0.362999 34.4262 0.362999H15.4864C13.6015 0.362999 11.9447 1.19179 10.9734 2.5041C10.9367 2.53378 10.9021 2.55893 10.8724 2.59666L0.126394 16.2495C0.0155248 16.3899 -0.0246988 16.5654 0.0150625 16.7349C0.0543614 16.905 0.149696 17.0499 0.31318 17.1361L10.022 22.2531V39.4619C10.022 39.5379 10.1144 39.612 10.1144 39.6876V39.9395H39.6118V39.6884C39.6118 39.6129 39.7042 39.5382 39.7042 39.4618V22.3931L49.6781 17.1347C49.8416 17.0485 49.9473 16.9023 49.9867 16.7327C50.0264 16.563 49.9754 16.386 49.8645 16.2454ZM31.6429 1.65755C30.934 4.4316 28.2082 6.55152 24.9563 6.55152C21.7048 6.55152 18.9791 4.4316 18.2702 1.65755H31.6429ZM10.022 20.8382L1.60736 16.412L10.022 5.71848V20.8382ZM38.3172 38.6448H11.409V5.26011L11.9903 3.32743C12.7074 2.29725 13.9973 1.65755 15.4865 1.65755H16.918C17.6496 5.17134 20.9714 7.77293 24.9564 7.77293C28.9418 7.77293 32.2636 5.17134 32.9952 1.65755H34.4263C36.6947 1.65755 38.3172 3.14093 38.3172 5.23163V38.6448V38.6448ZM39.9816 20.8378V5.71801L48.3962 16.4116L39.9816 20.8378Z" fill="#353738"/>
</g>
<defs>
<clipPath id="clip0_12_2590">
<rect width="50.0001" height="40" fill="white"/>
</clipPath>
</defs>
</svg>
