<svg width="50" height="24" viewBox="0 0 50 24" fill="none" xmlns="http://www.w3.org/2000/svg">
<g clip-path="url(#clip0_12_2554)">
<path d="M45.4199 6.78244H33.1088C31.4163 4.75863 28.9092 3.23946 26.0648 2.95743C22.7873 2.63493 19.5303 3.87803 17.3362 6.30077C17.1911 6.46101 17.0522 6.66328 16.9184 6.78232H4.60394C2.09822 6.78244 0 8.66638 0 10.9355V15.6246C0 17.8932 2.09822 19.7587 4.60394 19.7587H16.9171C18.6094 21.9015 21.1154 23.3078 23.9583 23.5897C24.3086 23.6244 24.6629 23.637 25.0115 23.637C27.929 23.637 30.7265 22.4036 32.6863 20.239C32.8304 20.0799 32.9685 19.8776 33.1015 19.7585H45.4198C47.9255 19.7585 50 17.8931 50 15.6245V10.9354C50.0001 8.66638 47.9256 6.78244 45.4199 6.78244ZM4.60394 18.211C3.03882 18.211 1.78572 17.0413 1.78572 15.6246V10.9355C1.78572 9.51888 3.03882 8.33007 4.60394 8.33007H15.8909C14.9155 10.1158 14.5009 12.2069 14.7105 14.3219C14.8479 15.7078 15.2611 17.0206 15.8933 18.211H4.60394ZM31.4221 19.0818C29.5885 21.1064 26.8718 22.1557 24.1267 21.8815C20.0581 21.4789 16.8125 18.2327 16.4099 14.1641C16.1636 11.6834 16.9422 9.30793 18.6017 7.47602C20.2385 5.66804 22.5753 4.63137 25.0122 4.63137C25.3051 4.63137 25.603 4.64672 25.8977 4.67577C29.9663 5.07839 33.2119 8.32459 33.6145 12.3932C33.8608 14.8739 33.0822 17.2494 31.4221 19.0818ZM48.2144 15.6246C48.2144 17.0413 46.9849 18.211 45.4199 18.211H34.1302C35.1069 16.4253 35.5221 14.3323 35.3127 12.2159C35.1754 10.8313 34.7629 9.52054 34.1319 8.33007H45.4199C46.985 8.33007 48.2144 9.51828 48.2144 10.9355V15.6246Z" fill="#353738"/>
<path d="M22.3568 2.25862H28.0184C28.4455 2.25862 28.7953 1.91195 28.7953 1.48481C28.7953 1.05767 28.4455 0.710999 28.0184 0.710999H22.3568C21.9297 0.710999 21.5799 1.05719 21.5799 1.48481C21.5799 1.91195 21.9292 2.25862 22.3568 2.25862Z" fill="#353738"/>
<path d="M25.8334 12.6621V6.66339C25.8334 6.19244 25.471 5.8103 25.0001 5.8103C24.5291 5.8103 24.1667 6.19244 24.1667 6.66339V12.6613C23.8096 12.9276 23.547 13.3626 23.547 13.8553C23.547 13.9835 23.5632 14.1071 23.594 14.2257L21.4011 16.4885C21.073 16.8275 21.081 17.3672 21.4195 17.6947C21.5855 17.8551 21.7991 17.9353 22.0129 17.9353C22.2353 17.9353 22.4582 17.8483 22.6259 17.6754L24.9086 15.3187C24.9428 15.321 24.9769 15.3239 25.0116 15.3239C25.8226 15.3239 26.4641 14.6665 26.4641 13.8554C26.4641 13.3631 26.1906 12.9285 25.8334 12.6621Z" fill="#353738"/>
</g>
<defs>
<clipPath id="clip0_12_2554">
<rect width="50" height="24" fill="white"/>
</clipPath>
</defs>
</svg>
