<svg width="200" height="88" viewBox="0 0 200 88" fill="none" xmlns="http://www.w3.org/2000/svg">
<path d="M68.4352 80.9C68.1284 80.9 67.9752 80.7334 67.9752 80.4C67.9752 80.1466 68.0418 79.88 68.1752 79.6L69.5952 76.5C69.7018 76.2734 69.8484 75.9734 70.0352 75.6C70.2218 75.2134 70.4484 74.7466 70.7152 74.2C70.7418 74.1466 70.7684 74.0866 70.7952 74.02C70.8352 73.9534 70.8752 73.8866 70.9152 73.82C70.9952 73.6734 71.0752 73.5134 71.1552 73.34L71.3952 72.84C71.6484 72.3066 71.8684 71.8866 72.0552 71.58C72.2552 71.26 72.4752 71.02 72.7152 70.86C73.0218 70.6734 73.2152 70.58 73.2952 70.58C73.3884 70.58 73.4884 70.6734 73.5952 70.86C73.5952 70.8734 73.5952 70.88 73.5952 70.88C73.6084 70.88 73.6152 70.8866 73.6152 70.9C73.6152 70.98 73.5552 71.1134 73.4352 71.3C73.3552 71.42 73.2418 71.5866 73.0952 71.8C72.9618 72 72.7952 72.2466 72.5952 72.54C71.8618 73.5934 71.2352 74.5466 70.7152 75.4C70.2084 76.2534 69.7818 77.1134 69.4352 77.98C69.7684 77.6866 70.1218 77.3934 70.4952 77.1C70.8818 76.8066 71.2084 76.58 71.4752 76.42C71.8484 76.2066 72.1752 76.1 72.4552 76.1C72.8818 76.1 73.0952 76.38 73.0952 76.94C73.0952 77.5534 72.9152 78.1134 72.5552 78.62C72.1952 79.1134 71.6952 79.5466 71.0552 79.92C70.4284 80.28 69.7152 80.5734 68.9152 80.8C68.7418 80.8666 68.5818 80.9 68.4352 80.9ZM69.1352 80.18C69.6284 80.18 70.1218 80.0134 70.6152 79.68C71.1084 79.36 71.5084 78.9734 71.8152 78.52C72.1352 78.0534 72.2952 77.64 72.2952 77.28C72.2952 77.0534 72.2218 76.8666 72.0752 76.72C71.9552 76.6934 71.7218 76.78 71.3752 76.98C71.0284 77.1666 70.6552 77.42 70.2552 77.74C69.8684 78.0466 69.5218 78.3666 69.2152 78.7C68.9484 79.5134 68.8418 80 68.8952 80.16L69.1352 80.18ZM73.3784 84.1C73.0852 84.1 72.8452 83.9666 72.6584 83.7C72.4718 83.4334 72.3784 83.12 72.3784 82.76C72.3784 82.56 72.4118 82.38 72.4784 82.22C72.5852 81.9934 72.6718 81.88 72.7384 81.88C72.7918 81.88 72.8184 81.92 72.8184 82C72.8184 82.0666 72.7984 82.1534 72.7584 82.26C72.7452 82.3 72.7384 82.3334 72.7384 82.36C72.7252 82.4 72.7184 82.4334 72.7184 82.46C72.7184 82.7 72.7852 82.9466 72.9184 83.2C73.0652 83.4534 73.2452 83.58 73.4584 83.58L73.6184 83.54C73.9384 83.46 74.2384 83.28 74.5184 83C74.8118 82.7334 75.0984 82.4 75.3784 82C75.7518 81.4534 76.0852 80.86 76.3784 80.22C76.6718 79.5934 76.9252 78.9666 77.1384 78.34C77.3518 77.7134 77.5118 77.1466 77.6184 76.64C77.6184 76.5734 77.5918 76.54 77.5384 76.54C77.4452 76.54 77.2984 76.6466 77.0984 76.86C76.9384 77.0334 76.7318 77.2734 76.4784 77.58C76.2252 77.8866 75.9118 78.2534 75.5384 78.68L75.2184 79.06C75.0052 79.3134 74.7852 79.5 74.5584 79.62C74.3452 79.7266 74.1452 79.78 73.9584 79.78C73.7984 79.78 73.6652 79.7466 73.5584 79.68C73.4252 79.5866 73.3584 79.42 73.3584 79.18C73.3584 78.7934 73.5384 78.1534 73.8984 77.26L74.1584 76.62C74.2918 76.3134 74.4052 76.0334 74.4984 75.78C74.6052 75.5266 74.7052 75.2934 74.7984 75.08C74.8918 74.9066 74.9984 74.82 75.1184 74.82C75.2652 74.82 75.2918 74.9066 75.1984 75.08C74.7184 76.1734 74.4384 77.0334 74.3584 77.66C74.3452 77.6866 74.3384 77.7266 74.3384 77.78C74.3384 77.82 74.3384 77.8666 74.3384 77.92C74.3384 78.2134 74.4584 78.36 74.6984 78.36C74.8584 78.36 75.0852 78.2666 75.3784 78.08C75.6718 77.8666 76.0384 77.5334 76.4784 77.08C76.9184 76.6134 77.4452 76.0266 78.0584 75.32C78.1652 75.2134 78.2652 75.1066 78.3584 75C78.4518 74.8934 78.5384 74.7934 78.6184 74.7C78.6718 74.6466 78.7184 74.62 78.7584 74.62C78.7984 74.62 78.8184 74.68 78.8184 74.8C78.8184 74.92 78.7984 75.0734 78.7584 75.26C78.7184 75.4334 78.6984 75.54 78.6984 75.58C78.5384 76.5534 78.2452 77.6 77.8184 78.72C77.3784 79.8266 76.8184 80.8534 76.1384 81.8C75.4718 82.7466 74.7252 83.46 73.8984 83.94C73.7252 84.0466 73.5518 84.1 73.3784 84.1ZM82.388 83C81.6814 83 81.1346 82.7934 80.748 82.38C80.348 81.9666 80.148 81.4066 80.148 80.7C80.148 80.5266 80.1614 80.36 80.188 80.2C80.2014 80.04 80.2214 79.8934 80.248 79.76C80.488 78.6266 81.0946 77.3266 82.068 75.86C82.708 74.8734 83.4214 73.98 84.208 73.18C85.008 72.38 85.828 71.74 86.668 71.26C87.5214 70.78 88.3414 70.54 89.128 70.54C89.5814 70.54 89.9146 70.6666 90.128 70.92C90.3414 71.16 90.448 71.4866 90.448 71.9C90.448 72.38 90.328 72.9334 90.088 73.56C89.8346 74.1866 89.5214 74.78 89.148 75.34C88.788 75.8866 88.4346 76.2866 88.088 76.54C88.0346 76.5934 87.9746 76.62 87.908 76.62C87.8546 76.62 87.828 76.5866 87.828 76.52C87.828 76.3734 87.9214 76.2266 88.108 76.08C88.2814 75.96 88.468 75.7534 88.668 75.46C88.8814 75.1534 89.0814 74.8134 89.268 74.44C89.468 74.0666 89.628 73.6934 89.748 73.32C89.8814 72.9466 89.948 72.6266 89.948 72.36C89.948 71.72 89.628 71.4 88.988 71.4C87.7746 71.4 86.6014 71.8666 85.468 72.8C84.708 73.4134 84.0146 74.1334 83.388 74.96C82.7746 75.7734 82.248 76.6066 81.808 77.46C81.3814 78.3134 81.068 79.12 80.868 79.88C80.788 80.1734 80.748 80.4666 80.748 80.76C80.748 81.3334 80.9146 81.7866 81.248 82.12C81.568 82.4534 82.008 82.5934 82.568 82.54C83.5946 82.4466 84.728 82.04 85.968 81.32C86.7814 80.84 87.568 80.3 88.328 79.7C89.088 79.1 89.7946 78.4734 90.448 77.82C91.1014 77.1534 91.668 76.5134 92.148 75.9L91.188 76.04C90.8946 76.08 90.648 76.1266 90.448 76.18C90.2614 76.22 90.1346 76.2534 90.068 76.28C90.0414 76.2934 90.008 76.3 89.968 76.3C89.888 76.3 89.848 76.24 89.848 76.12C89.848 76 89.888 75.86 89.968 75.7C90.0614 75.54 90.1614 75.4334 90.268 75.38C90.628 75.1934 91.488 75.0534 92.848 74.96C93.4346 74.2934 94.0414 73.6266 94.668 72.96C95.3346 72.24 95.8946 71.6266 96.348 71.12C96.8014 70.6134 97.2014 70.1466 97.548 69.72C97.908 69.28 98.2546 68.8266 98.588 68.36C98.6946 68.2134 98.8014 68.14 98.908 68.14C98.988 68.14 99.028 68.18 99.028 68.26C99.028 68.34 99.0014 68.4066 98.948 68.46C98.4946 69.1 98.0214 69.7266 97.528 70.34C97.0346 70.9534 96.488 71.6066 95.888 72.3C95.3014 72.98 94.6346 73.7534 93.888 74.62L93.628 74.92L94.548 74.88L96.308 74.82C96.2946 74.8466 96.3546 74.7266 96.488 74.46C96.6214 74.18 96.8214 73.7534 97.088 73.18C97.4614 72.4066 97.788 71.72 98.068 71.12C98.3614 70.5066 98.6014 69.98 98.788 69.54C99.1746 68.6734 99.3746 68.0734 99.388 67.74C99.4014 67.5666 99.488 67.4334 99.648 67.34C99.808 67.2466 99.988 67.2 100.188 67.2C100.335 67.2 100.468 67.2266 100.588 67.28C100.721 67.32 100.801 67.3734 100.828 67.44C100.895 67.56 100.795 67.88 100.528 68.4C100.355 68.76 100.141 69.1734 99.888 69.64C99.6346 70.1066 99.348 70.6266 99.028 71.2C98.588 71.9866 98.208 72.68 97.888 73.28C97.5814 73.88 97.3346 74.3866 97.148 74.8L98.688 74.72H98.748C98.868 74.72 98.928 74.76 98.928 74.84C98.928 74.8934 98.8946 74.9466 98.828 75C98.7614 75.0534 98.6746 75.0866 98.568 75.1L96.948 75.22C96.9346 75.2466 96.8614 75.4066 96.728 75.7C96.5946 75.9934 96.4014 76.4134 96.148 76.96C95.6414 78.08 95.388 79.0334 95.388 79.82C95.388 80.3534 95.588 80.62 95.988 80.62C96.0946 80.62 96.2346 80.5666 96.408 80.46C96.5946 80.3666 96.768 80.2534 96.928 80.12C97.1014 79.9866 97.228 79.8666 97.308 79.76C97.4014 79.6266 97.4946 79.56 97.588 79.56C97.6414 79.56 97.668 79.5866 97.668 79.64C97.668 79.7066 97.6146 79.7934 97.508 79.9C97.3746 80.0466 97.2014 80.2134 96.988 80.4C96.7746 80.5866 96.5614 80.7466 96.348 80.88C96.1346 81.0134 95.9546 81.0866 95.808 81.1C94.9546 81.1534 94.528 80.7666 94.528 79.94C94.528 79.4466 94.648 78.88 94.888 78.24C95.1414 77.6 95.4546 76.8534 95.828 76L96.148 75.28C95.6946 75.32 95.0746 75.42 94.288 75.58C94.008 75.6334 93.7546 75.68 93.528 75.72C93.3146 75.7466 93.1346 75.7734 92.988 75.8C92.2014 76.6934 91.3546 77.5666 90.448 78.42C89.5414 79.2734 88.6146 80.0466 87.668 80.74C86.7346 81.4334 85.8146 81.98 84.908 82.38C84.0146 82.7934 83.1746 83 82.388 83ZM98.0654 80.32C97.8254 80.32 97.7054 80.2266 97.7054 80.04C97.7054 79.92 97.7454 79.7666 97.8254 79.58C97.9188 79.3934 98.0122 79.2134 98.1054 79.04C98.3588 78.5866 98.5922 78.1466 98.8054 77.72C99.0188 77.2934 99.2254 76.84 99.4254 76.36C99.5188 76.1466 99.6588 76.04 99.8454 76.04C100.045 76.04 100.105 76.16 100.025 76.4C99.9454 76.6 99.8654 76.78 99.7854 76.94C99.4122 77.7 99.2254 78.2134 99.2254 78.48C99.2254 78.6 99.2654 78.6734 99.3454 78.7C99.5322 78.5534 99.6722 78.4466 99.7654 78.38C99.8588 78.3 99.9122 78.2534 99.9254 78.24C100.112 78.0934 100.319 77.9266 100.545 77.74C100.785 77.54 101.045 77.3134 101.325 77.06C101.765 76.66 102.132 76.46 102.425 76.46C102.785 76.46 102.939 76.7866 102.885 77.44C102.872 77.6934 102.872 77.94 102.885 78.18C102.899 78.2334 102.905 78.3134 102.905 78.42C102.905 78.5134 102.905 78.6266 102.905 78.76C102.905 78.8934 102.985 78.96 103.145 78.96C103.332 78.96 103.505 78.9066 103.665 78.8L104.105 78.5L104.545 78.22C104.572 78.2066 104.619 78.2 104.685 78.2C104.765 78.2 104.765 78.26 104.685 78.38C103.845 79.42 103.152 79.94 102.605 79.94C102.499 79.94 102.392 79.92 102.285 79.88C102.192 79.84 102.125 79.7266 102.085 79.54C102.045 79.34 102.019 79.1266 102.005 78.9C102.005 78.6734 102.005 78.5 102.005 78.38L102.025 77.72C102.025 77.44 101.952 77.3 101.805 77.3C101.459 77.3 100.605 78.0134 99.2454 79.44C99.1388 79.5734 98.9722 79.7534 98.7454 79.98C98.5188 80.2066 98.2922 80.32 98.0654 80.32ZM107.883 80.54C107.857 80.54 107.83 80.5334 107.803 80.52C107.777 80.52 107.75 80.5134 107.723 80.5C107.537 80.4066 107.417 80.2734 107.363 80.1C107.31 79.9266 107.297 79.7066 107.323 79.44C107.35 79.3334 107.377 79.1466 107.403 78.88C107.443 78.6134 107.49 78.4 107.543 78.24L106.523 79.22L105.963 79.76C105.577 80.1466 105.257 80.34 105.003 80.34C104.897 80.34 104.81 80.3 104.743 80.22C104.623 80.0734 104.563 79.8934 104.563 79.68C104.563 79.4 104.637 79.1 104.783 78.78C104.93 78.46 105.103 78.1534 105.303 77.86C105.503 77.5534 105.683 77.3 105.843 77.1C106.243 76.6066 106.63 76.22 107.003 75.94C107.39 75.66 107.79 75.52 108.203 75.52C108.43 75.52 108.65 75.56 108.863 75.64C109.09 75.72 109.297 75.8534 109.483 76.04L109.503 76.06C109.503 76.1 109.47 76.14 109.403 76.18C109.377 76.2066 109.35 76.2266 109.323 76.24C109.31 76.2534 109.297 76.2666 109.283 76.28C109.123 76.44 108.943 76.7066 108.743 77.08C108.543 77.4534 108.37 77.8466 108.223 78.26C108.077 78.66 108.003 79.0066 108.003 79.3C108.003 79.5666 108.07 79.7466 108.203 79.84C108.27 79.88 108.343 79.9 108.423 79.9C108.597 79.9 108.837 79.7934 109.143 79.58C109.157 79.5666 109.183 79.5466 109.223 79.52C109.277 79.48 109.35 79.4266 109.443 79.36C109.55 79.28 109.637 79.24 109.703 79.24C109.77 79.24 109.803 79.2666 109.803 79.32C109.803 79.4 109.75 79.4934 109.643 79.6C109.563 79.6666 109.47 79.74 109.363 79.82C109.27 79.9 109.157 79.98 109.023 80.06C108.823 80.2066 108.617 80.32 108.403 80.4C108.19 80.4934 108.017 80.54 107.883 80.54ZM105.623 79.26C105.903 79.26 106.423 78.8466 107.183 78.02C107.383 77.7934 107.563 77.58 107.723 77.38C107.883 77.1666 108.03 76.96 108.163 76.76C108.403 76.3734 108.483 76.1066 108.403 75.96C108.363 75.88 108.283 75.84 108.163 75.84C108.017 75.84 107.817 75.92 107.563 76.08C107.31 76.2266 107.05 76.42 106.783 76.66C106.53 76.9 106.297 77.14 106.083 77.38C105.937 77.5666 105.79 77.8266 105.643 78.16C105.497 78.4934 105.423 78.7666 105.423 78.98C105.423 79.1666 105.49 79.26 105.623 79.26ZM110.043 80.84C109.83 80.84 109.643 80.82 109.483 80.78C109.336 80.74 109.263 80.6866 109.263 80.62C109.263 80.5134 109.37 80.4534 109.583 80.44C109.783 80.4266 109.916 80.4066 109.983 80.38C110.103 80.3534 110.243 80.3334 110.403 80.32C110.55 80.2934 110.67 80.2734 110.763 80.26C111.403 80.0734 111.723 79.7866 111.723 79.4C111.723 79.1334 111.583 78.7934 111.303 78.38C111.13 78.1266 111.043 77.8466 111.043 77.54C111.043 77.1666 111.156 76.8 111.383 76.44C111.623 76.08 111.916 75.7666 112.263 75.5C112.623 75.22 112.983 75.0334 113.343 74.94C113.503 74.9 113.67 74.88 113.843 74.88C114.123 74.88 114.323 74.9466 114.443 75.08C114.523 75.16 114.563 75.3334 114.563 75.6C114.563 75.8 114.53 76.0066 114.463 76.22C114.396 76.42 114.303 76.5866 114.183 76.72C114.116 76.7866 114.063 76.82 114.023 76.82C113.956 76.82 113.923 76.7266 113.923 76.54L113.943 76.14C113.956 76.0334 113.963 75.94 113.963 75.86C113.976 75.78 113.983 75.7134 113.983 75.66C113.983 75.4334 113.936 75.3 113.843 75.26C113.736 75.2334 113.663 75.22 113.623 75.22C113.343 75.22 113.043 75.3466 112.723 75.6C112.403 75.8534 112.143 76.1466 111.943 76.48C111.863 76.6 111.823 76.7466 111.823 76.92C111.823 77.1334 111.876 77.3866 111.983 77.68C112.103 77.96 112.19 78.1666 112.243 78.3C112.376 78.5934 112.476 78.8466 112.543 79.06C112.623 79.2734 112.663 79.46 112.663 79.62C112.663 79.7 112.656 79.76 112.643 79.8C112.71 79.7734 112.87 79.7334 113.123 79.68C113.35 79.6266 113.543 79.6 113.703 79.6C113.796 79.6 113.843 79.62 113.843 79.66C113.843 79.6734 113.803 79.72 113.723 79.8C113.683 79.84 113.556 79.9066 113.343 80C113.143 80.08 112.903 80.1666 112.623 80.26C112.356 80.3534 112.09 80.44 111.823 80.52C111.556 80.6 111.33 80.66 111.143 80.7C110.823 80.7934 110.456 80.84 110.043 80.84ZM114.611 81.86C114.544 81.86 114.511 81.8 114.511 81.68C114.511 81.6534 114.511 81.6134 114.511 81.56C114.524 81.52 114.537 81.4734 114.551 81.42L115.411 79.26L116.431 76.74C116.271 76.7266 116.037 76.7334 115.731 76.76C115.424 76.7734 115.164 76.8 114.951 76.84C114.871 76.8534 114.804 76.8666 114.751 76.88C114.711 76.88 114.677 76.88 114.651 76.88C114.544 76.88 114.471 76.8334 114.431 76.74C114.444 76.66 114.517 76.5866 114.651 76.52C114.717 76.4934 114.797 76.4734 114.891 76.46C114.984 76.4334 115.097 76.4066 115.231 76.38C115.377 76.3534 115.504 76.3334 115.611 76.32C115.731 76.3066 115.817 76.2934 115.871 76.28C115.937 76.2666 116.004 76.2534 116.071 76.24C116.137 76.2266 116.217 76.2134 116.311 76.2C116.391 76.1866 116.477 76.1734 116.571 76.16C116.664 76.1466 116.764 76.1266 116.871 76.1C116.977 75.9534 117.137 75.6934 117.351 75.32C117.564 74.9466 117.837 74.4534 118.171 73.84C118.437 73.3466 118.651 72.96 118.811 72.68C118.984 72.3866 119.104 72.1934 119.171 72.1C119.291 71.94 119.431 71.86 119.591 71.86C119.671 71.86 119.711 71.8934 119.711 71.96C119.711 71.9734 119.677 72.06 119.611 72.22C119.531 72.3534 119.397 72.6 119.211 72.96C119.024 73.32 118.824 73.7134 118.611 74.14C118.397 74.5666 118.204 74.9666 118.031 75.34C117.857 75.7134 117.737 75.9866 117.671 76.16C117.737 76.1466 117.811 76.14 117.891 76.14C117.984 76.14 118.097 76.14 118.231 76.14C118.377 76.14 118.511 76.1466 118.631 76.16C118.764 76.16 118.877 76.1666 118.971 76.18C119.157 76.22 119.251 76.2734 119.251 76.34C119.251 76.3666 119.191 76.4134 119.071 76.48C119.004 76.5066 118.877 76.5334 118.691 76.56C118.504 76.5866 118.257 76.6134 117.951 76.64C117.871 76.64 117.784 76.6466 117.691 76.66C117.597 76.66 117.497 76.6666 117.391 76.68C116.991 77.3334 116.444 78.42 115.751 79.94C115.497 80.4466 115.304 80.84 115.171 81.12C115.037 81.4 114.957 81.5666 114.931 81.62C114.811 81.78 114.704 81.86 114.611 81.86ZM121.614 80.54C121.587 80.54 121.56 80.5334 121.534 80.52C121.507 80.52 121.48 80.5134 121.454 80.5C121.267 80.4066 121.147 80.2734 121.094 80.1C121.04 79.9266 121.027 79.7066 121.054 79.44C121.08 79.3334 121.107 79.1466 121.134 78.88C121.174 78.6134 121.22 78.4 121.274 78.24L120.254 79.22L119.694 79.76C119.307 80.1466 118.987 80.34 118.734 80.34C118.627 80.34 118.54 80.3 118.474 80.22C118.354 80.0734 118.294 79.8934 118.294 79.68C118.294 79.4 118.367 79.1 118.514 78.78C118.66 78.46 118.834 78.1534 119.034 77.86C119.234 77.5534 119.414 77.3 119.574 77.1C119.974 76.6066 120.36 76.22 120.734 75.94C121.12 75.66 121.52 75.52 121.934 75.52C122.16 75.52 122.38 75.56 122.594 75.64C122.82 75.72 123.027 75.8534 123.214 76.04L123.234 76.06C123.234 76.1 123.2 76.14 123.134 76.18C123.107 76.2066 123.08 76.2266 123.054 76.24C123.04 76.2534 123.027 76.2666 123.014 76.28C122.854 76.44 122.674 76.7066 122.474 77.08C122.274 77.4534 122.1 77.8466 121.954 78.26C121.807 78.66 121.734 79.0066 121.734 79.3C121.734 79.5666 121.8 79.7466 121.934 79.84C122 79.88 122.074 79.9 122.154 79.9C122.327 79.9 122.567 79.7934 122.874 79.58C122.887 79.5666 122.914 79.5466 122.954 79.52C123.007 79.48 123.08 79.4266 123.174 79.36C123.28 79.28 123.367 79.24 123.434 79.24C123.5 79.24 123.534 79.2666 123.534 79.32C123.534 79.4 123.48 79.4934 123.374 79.6C123.294 79.6666 123.2 79.74 123.094 79.82C123 79.9 122.887 79.98 122.754 80.06C122.554 80.2066 122.347 80.32 122.134 80.4C121.92 80.4934 121.747 80.54 121.614 80.54ZM119.354 79.26C119.634 79.26 120.154 78.8466 120.914 78.02C121.114 77.7934 121.294 77.58 121.454 77.38C121.614 77.1666 121.76 76.96 121.894 76.76C122.134 76.3734 122.214 76.1066 122.134 75.96C122.094 75.88 122.014 75.84 121.894 75.84C121.747 75.84 121.547 75.92 121.294 76.08C121.04 76.2266 120.78 76.42 120.514 76.66C120.26 76.9 120.027 77.14 119.814 77.38C119.667 77.5666 119.52 77.8266 119.374 78.16C119.227 78.4934 119.154 78.7666 119.154 78.98C119.154 79.1666 119.22 79.26 119.354 79.26ZM123.774 80.84C123.56 80.84 123.374 80.82 123.214 80.78C123.067 80.74 122.994 80.6866 122.994 80.62C122.994 80.5134 123.1 80.4534 123.314 80.44C123.514 80.4266 123.647 80.4066 123.714 80.38C123.834 80.3534 123.974 80.3334 124.134 80.32C124.28 80.2934 124.4 80.2734 124.494 80.26C125.134 80.0734 125.454 79.7866 125.454 79.4C125.454 79.1334 125.314 78.7934 125.034 78.38C124.86 78.1266 124.774 77.8466 124.774 77.54C124.774 77.1666 124.887 76.8 125.114 76.44C125.354 76.08 125.647 75.7666 125.994 75.5C126.354 75.22 126.714 75.0334 127.074 74.94C127.234 74.9 127.4 74.88 127.574 74.88C127.854 74.88 128.054 74.9466 128.174 75.08C128.254 75.16 128.294 75.3334 128.294 75.6C128.294 75.8 128.26 76.0066 128.194 76.22C128.127 76.42 128.034 76.5866 127.914 76.72C127.847 76.7866 127.794 76.82 127.754 76.82C127.687 76.82 127.654 76.7266 127.654 76.54L127.674 76.14C127.687 76.0334 127.694 75.94 127.694 75.86C127.707 75.78 127.714 75.7134 127.714 75.66C127.714 75.4334 127.667 75.3 127.574 75.26C127.467 75.2334 127.394 75.22 127.354 75.22C127.074 75.22 126.774 75.3466 126.454 75.6C126.134 75.8534 125.874 76.1466 125.674 76.48C125.594 76.6 125.554 76.7466 125.554 76.92C125.554 77.1334 125.607 77.3866 125.714 77.68C125.834 77.96 125.92 78.1666 125.974 78.3C126.107 78.5934 126.207 78.8466 126.274 79.06C126.354 79.2734 126.394 79.46 126.394 79.62C126.394 79.7 126.387 79.76 126.374 79.8C126.44 79.7734 126.6 79.7334 126.854 79.68C127.08 79.6266 127.274 79.6 127.434 79.6C127.527 79.6 127.574 79.62 127.574 79.66C127.574 79.6734 127.534 79.72 127.454 79.8C127.414 79.84 127.287 79.9066 127.074 80C126.874 80.08 126.634 80.1666 126.354 80.26C126.087 80.3534 125.82 80.44 125.554 80.52C125.287 80.6 125.06 80.66 124.874 80.7C124.554 80.7934 124.187 80.84 123.774 80.84ZM130.201 75.62C130.028 75.62 129.941 75.58 129.941 75.5C129.941 75.4334 129.988 75.34 130.081 75.22C130.188 75.0866 130.308 74.9734 130.441 74.88C130.735 74.6934 130.961 74.5334 131.121 74.4C131.295 74.2666 131.501 74.04 131.741 73.72C131.755 73.7466 131.761 73.8 131.761 73.88C131.761 74.0534 131.688 74.2666 131.541 74.52C131.408 74.76 131.255 74.98 131.081 75.18C130.908 75.38 130.755 75.5066 130.621 75.56C130.501 75.6 130.361 75.62 130.201 75.62ZM128.421 80.52C128.315 80.52 128.215 80.48 128.121 80.4C128.028 80.32 127.981 80.2134 127.981 80.08C127.981 79.8 128.175 79.2866 128.561 78.54L128.781 78.1C128.808 78.0734 128.841 78.0066 128.881 77.9C128.935 77.7934 129.008 77.6534 129.101 77.48C129.195 77.2934 129.268 77.1266 129.321 76.98C129.375 76.8334 129.415 76.6934 129.441 76.56C129.441 76.5466 129.468 76.52 129.521 76.48C129.575 76.44 129.628 76.4066 129.681 76.38L129.801 76.36C129.908 76.36 129.995 76.38 130.061 76.42C130.141 76.46 130.168 76.5134 130.141 76.58C130.048 76.78 129.968 76.9534 129.901 77.1C129.835 77.2466 129.781 77.3734 129.741 77.48H129.721C129.575 77.8134 129.448 78.1334 129.341 78.44C129.248 78.7334 129.208 79.0134 129.221 79.28L129.241 79.82C129.228 79.9534 129.181 80.0666 129.101 80.16C129.048 80.2 128.975 80.2466 128.881 80.3C128.788 80.3666 128.668 80.4334 128.521 80.5C128.508 80.5134 128.475 80.52 128.421 80.52ZM132.389 75.62C132.215 75.62 132.129 75.58 132.129 75.5C132.129 75.4334 132.175 75.34 132.269 75.22C132.375 75.0866 132.495 74.9734 132.629 74.88C132.922 74.6934 133.149 74.5334 133.309 74.4C133.482 74.2666 133.689 74.04 133.929 73.72C133.942 73.7466 133.949 73.8 133.949 73.88C133.949 74.0534 133.875 74.2666 133.729 74.52C133.595 74.76 133.442 74.98 133.269 75.18C133.095 75.38 132.942 75.5066 132.809 75.56C132.689 75.6 132.549 75.62 132.389 75.62ZM130.609 80.52C130.502 80.52 130.402 80.48 130.309 80.4C130.215 80.32 130.169 80.2134 130.169 80.08C130.169 79.8 130.362 79.2866 130.749 78.54L130.969 78.1C130.995 78.0734 131.029 78.0066 131.069 77.9C131.122 77.7934 131.195 77.6534 131.289 77.48C131.382 77.2934 131.455 77.1266 131.509 76.98C131.562 76.8334 131.602 76.6934 131.629 76.56C131.629 76.5466 131.655 76.52 131.709 76.48C131.762 76.44 131.815 76.4066 131.869 76.38L131.989 76.36C132.095 76.36 132.182 76.38 132.249 76.42C132.329 76.46 132.355 76.5134 132.329 76.58C132.235 76.78 132.155 76.9534 132.089 77.1C132.022 77.2466 131.969 77.3734 131.929 77.48H131.909C131.762 77.8134 131.635 78.1334 131.529 78.44C131.435 78.7334 131.395 79.0134 131.409 79.28L131.429 79.82C131.415 79.9534 131.369 80.0666 131.289 80.16C131.235 80.2 131.162 80.2466 131.069 80.3C130.975 80.3666 130.855 80.4334 130.709 80.5C130.695 80.5134 130.662 80.52 130.609 80.52ZM135.676 80.54C135.65 80.54 135.623 80.5334 135.596 80.52C135.57 80.52 135.543 80.5134 135.516 80.5C135.33 80.4066 135.21 80.2734 135.156 80.1C135.103 79.9266 135.09 79.7066 135.116 79.44C135.143 79.3334 135.17 79.1466 135.196 78.88C135.236 78.6134 135.283 78.4 135.336 78.24L134.316 79.22L133.756 79.76C133.37 80.1466 133.05 80.34 132.796 80.34C132.69 80.34 132.603 80.3 132.536 80.22C132.416 80.0734 132.356 79.8934 132.356 79.68C132.356 79.4 132.43 79.1 132.576 78.78C132.723 78.46 132.896 78.1534 133.096 77.86C133.296 77.5534 133.476 77.3 133.636 77.1C134.036 76.6066 134.423 76.22 134.796 75.94C135.183 75.66 135.583 75.52 135.996 75.52C136.223 75.52 136.443 75.56 136.656 75.64C136.883 75.72 137.09 75.8534 137.276 76.04L137.296 76.06C137.296 76.1 137.263 76.14 137.196 76.18C137.17 76.2066 137.143 76.2266 137.116 76.24C137.103 76.2534 137.09 76.2666 137.076 76.28C136.916 76.44 136.736 76.7066 136.536 77.08C136.336 77.4534 136.163 77.8466 136.016 78.26C135.87 78.66 135.796 79.0066 135.796 79.3C135.796 79.5666 135.863 79.7466 135.996 79.84C136.063 79.88 136.136 79.9 136.216 79.9C136.39 79.9 136.63 79.7934 136.936 79.58C136.95 79.5666 136.976 79.5466 137.016 79.52C137.07 79.48 137.143 79.4266 137.236 79.36C137.343 79.28 137.43 79.24 137.496 79.24C137.563 79.24 137.596 79.2666 137.596 79.32C137.596 79.4 137.543 79.4934 137.436 79.6C137.356 79.6666 137.263 79.74 137.156 79.82C137.063 79.9 136.95 79.98 136.816 80.06C136.616 80.2066 136.41 80.32 136.196 80.4C135.983 80.4934 135.81 80.54 135.676 80.54ZM133.416 79.26C133.696 79.26 134.216 78.8466 134.976 78.02C135.176 77.7934 135.356 77.58 135.516 77.38C135.676 77.1666 135.823 76.96 135.956 76.76C136.196 76.3734 136.276 76.1066 136.196 75.96C136.156 75.88 136.076 75.84 135.956 75.84C135.81 75.84 135.61 75.92 135.356 76.08C135.103 76.2266 134.843 76.42 134.576 76.66C134.323 76.9 134.09 77.14 133.876 77.38C133.73 77.5666 133.583 77.8266 133.436 78.16C133.29 78.4934 133.216 78.7666 133.216 78.98C133.216 79.1666 133.283 79.26 133.416 79.26ZM144.032 81.98C143.206 81.98 142.546 81.7334 142.052 81.24C141.572 80.76 141.332 80.1066 141.332 79.28C141.332 78.7066 141.419 78.1134 141.592 77.5C141.766 76.8734 142.019 76.2266 142.352 75.56C142.779 74.7066 143.292 73.94 143.892 73.26C144.506 72.5666 145.172 72.02 145.892 71.62C146.626 71.22 147.379 71.02 148.152 71.02C148.659 71.02 149.026 71.1466 149.252 71.4C149.492 71.64 149.612 71.96 149.612 72.36C149.612 72.7066 149.539 73.0934 149.392 73.52C149.246 73.9334 149.066 74.32 148.852 74.68C148.652 75.0266 148.446 75.2934 148.232 75.48C148.179 75.5334 148.119 75.56 148.052 75.56C147.986 75.56 147.952 75.5266 147.952 75.46C147.952 75.3666 147.999 75.2734 148.092 75.18C148.319 74.98 148.526 74.66 148.712 74.22C148.899 73.78 148.992 73.36 148.992 72.96C148.992 72.6134 148.912 72.34 148.752 72.14C148.592 71.9266 148.339 71.82 147.992 71.82C147.032 71.82 146.099 72.2334 145.192 73.06C144.592 73.6066 144.052 74.24 143.572 74.96C143.092 75.68 142.706 76.4134 142.412 77.16C142.119 77.8934 141.939 78.5666 141.872 79.18C141.832 79.6466 141.906 80.0734 142.092 80.46C142.292 80.86 142.572 81.1666 142.932 81.38C143.292 81.6066 143.699 81.7 144.152 81.66C145.366 81.5534 146.552 81 147.712 80C148.872 78.9866 150.099 77.5934 151.392 75.82C151.232 75.66 151.126 75.4666 151.072 75.24C151.046 75.0266 151.086 74.86 151.192 74.74C151.312 74.6066 151.459 74.54 151.632 74.54C151.859 74.54 152.039 74.6066 152.172 74.74C152.399 74.34 152.819 73.62 153.432 72.58C153.512 72.4466 153.646 72.22 153.832 71.9C154.032 71.5666 154.246 71.2 154.472 70.8C154.699 70.3866 154.906 70 155.092 69.64C155.106 69.6266 155.112 69.6 155.112 69.56C155.112 69.5334 155.079 69.4734 155.012 69.38C154.919 69.3134 154.906 69.24 154.972 69.16L155.492 68.1C155.559 67.9934 155.672 67.94 155.832 67.94C155.992 67.94 156.139 67.98 156.272 68.06C156.419 68.14 156.486 68.2266 156.472 68.32C156.326 68.9334 155.946 69.7734 155.332 70.84C154.732 71.8934 153.952 73.1466 152.992 74.6C152.832 74.84 152.699 75.0134 152.592 75.12L152.552 75.16C152.512 75.2 152.499 75.2534 152.512 75.32L152.552 75.62C152.752 75.6866 152.899 75.72 152.992 75.72C153.446 75.72 153.926 75.6466 154.432 75.5C154.939 75.34 155.426 75.14 155.892 74.9C156.372 74.66 156.779 74.42 157.112 74.18C157.966 73.5534 158.686 72.9134 159.272 72.26C159.872 71.5934 160.386 70.88 160.812 70.12C160.879 69.96 160.912 69.7666 160.912 69.54C160.939 69.3934 160.972 69.2534 161.012 69.12C161.066 68.9866 161.126 68.8734 161.192 68.78C161.246 68.6866 161.352 68.64 161.512 68.64C161.672 68.64 161.812 68.6866 161.932 68.78C162.066 68.86 162.119 68.96 162.092 69.08C161.972 69.56 161.679 70.1266 161.212 70.78C160.746 71.4334 160.179 72.0934 159.512 72.76C158.859 73.4266 158.166 74.0266 157.432 74.56C157.059 74.84 156.612 75.1066 156.092 75.36C155.586 75.6 155.059 75.8 154.512 75.96C153.966 76.1066 153.439 76.18 152.932 76.18H152.712C152.819 76.6734 152.946 77.1066 153.092 77.48C153.239 77.8534 153.446 78.2334 153.712 78.62C153.992 79.0066 154.279 79.3266 154.572 79.58C154.866 79.82 155.206 79.94 155.592 79.94C155.846 79.94 156.126 79.9 156.432 79.82C156.739 79.7266 156.932 79.6134 157.012 79.48C157.092 79.36 157.192 79.3 157.312 79.3C157.406 79.3 157.452 79.3334 157.452 79.4C157.452 79.44 157.432 79.4934 157.392 79.56C157.272 79.7334 157.072 79.9334 156.792 80.16C156.526 80.4 156.252 80.6 155.972 80.76C155.692 80.9334 155.459 81.02 155.272 81.02C154.766 80.98 154.339 80.82 153.992 80.54C153.646 80.26 153.312 79.8066 152.992 79.18C152.792 78.7534 152.592 78.2066 152.392 77.54L152.172 76.8C152.146 76.6534 152.112 76.52 152.072 76.4C152.032 76.28 151.999 76.1734 151.972 76.08L151.872 76.04C150.512 77.88 149.166 79.3266 147.832 80.38C146.499 81.4334 145.232 81.9666 144.032 81.98ZM161.1 80.58C160.753 80.58 160.58 80.3266 160.58 79.82C160.58 79.3 160.76 78.5334 161.12 77.52C160.693 78.0666 160.266 78.5534 159.84 78.98C159.426 79.3934 159.013 79.7334 158.6 80C158.306 80.2134 158.04 80.32 157.8 80.32C157.48 80.32 157.32 80.1 157.32 79.66C157.32 79.42 157.36 79.2 157.44 79C157.546 78.7066 157.7 78.3666 157.9 77.98C158.113 77.5934 158.36 77.2066 158.64 76.82C158.92 76.4334 159.206 76.1066 159.5 75.84C159.606 75.7734 159.673 75.74 159.7 75.74C159.793 75.74 159.84 75.7934 159.84 75.9C159.84 75.94 159.82 75.9934 159.78 76.06C159.66 76.1934 159.52 76.3866 159.36 76.64C159.2 76.8934 159.046 77.1666 158.9 77.46C158.753 77.7534 158.626 78.0266 158.52 78.28C158.426 78.52 158.38 78.7 158.38 78.82C158.38 79.06 158.486 79.18 158.7 79.18C158.793 79.18 158.893 79.1466 159 79.08C159.493 78.7734 159.946 78.4066 160.36 77.98C160.773 77.54 161.16 76.9466 161.52 76.2C161.64 76.12 161.773 76.08 161.92 76.08C162.066 76.08 162.186 76.1266 162.28 76.22C162.386 76.3134 162.44 76.44 162.44 76.6C162.44 76.72 162.406 76.86 162.34 77.02C162.326 77.0734 162.3 77.1266 162.26 77.18C162.233 77.2334 162.2 77.2934 162.16 77.36C162.12 77.4266 162.086 77.4934 162.06 77.56C162.033 77.6134 162.006 77.66 161.98 77.7C161.726 78.1534 161.526 78.5334 161.38 78.84C161.246 79.1466 161.18 79.4134 161.18 79.64C161.18 79.9066 161.3 80.04 161.54 80.04C161.753 80.04 161.966 79.96 162.18 79.8C162.313 79.7066 162.426 79.66 162.52 79.66C162.666 79.66 162.633 79.7534 162.42 79.94C162.22 80.1134 161.973 80.2734 161.68 80.42C161.4 80.5266 161.206 80.58 161.1 80.58ZM163.005 80.42C162.831 80.42 162.745 80.2666 162.745 79.96C162.745 79.7066 162.805 79.46 162.925 79.22C163.231 78.6334 163.511 78.0534 163.765 77.48C163.938 77.1334 164.098 76.8 164.245 76.48C164.405 76.16 164.551 75.8666 164.685 75.6C164.765 75.52 164.845 75.48 164.925 75.48C165.098 75.48 165.151 75.56 165.085 75.72C165.058 75.8134 165.018 75.9266 164.965 76.06C164.925 76.18 164.871 76.3266 164.805 76.5C164.591 77.06 164.465 77.4534 164.425 77.68C164.798 77.3466 165.178 77.04 165.565 76.76C165.965 76.4666 166.338 76.2266 166.685 76.04C167.031 75.8534 167.325 75.76 167.565 75.76C167.778 75.76 167.885 75.8466 167.885 76.02C167.885 76.1666 167.818 76.3266 167.685 76.5C167.551 76.66 167.418 76.74 167.285 76.74C167.218 76.74 167.165 76.72 167.125 76.68C167.085 76.6666 167.005 76.66 166.885 76.66C166.458 76.66 166.011 76.8666 165.545 77.28C165.051 77.6934 164.605 78.1934 164.205 78.78C163.805 79.3534 163.511 79.8534 163.325 80.28C163.231 80.3734 163.125 80.42 163.005 80.42ZM166.81 81.18C166.53 81.18 166.41 81.04 166.45 80.76C166.53 80.2534 166.67 79.7466 166.87 79.24C166.977 78.9734 167.11 78.6666 167.27 78.32C167.443 77.9734 167.643 77.5866 167.87 77.16C167.99 76.9334 168.09 76.7334 168.17 76.56C168.263 76.3866 168.337 76.2466 168.39 76.14C168.483 75.9534 168.577 75.7534 168.67 75.54C168.777 75.3266 168.883 75.0934 168.99 74.84C169.497 73.7334 169.93 72.8666 170.29 72.24C170.663 71.6 171.063 71.1466 171.49 70.88C171.517 70.8534 171.59 70.8534 171.71 70.88C171.83 70.8934 171.943 70.92 172.05 70.96C172.17 71 172.243 71.0466 172.27 71.1C172.31 71.1934 172.33 71.3266 172.33 71.5C172.33 72.0334 172.083 72.6734 171.59 73.42C171.323 73.82 170.983 74.26 170.57 74.74C170.17 75.2066 169.697 75.7134 169.15 76.26L168.79 76.84C168.39 77.48 168.077 78.0266 167.85 78.48C167.637 78.9334 167.557 79.3334 167.61 79.68C167.637 79.76 167.67 79.8 167.71 79.8C167.75 79.8 167.817 79.7666 167.91 79.7C168.003 79.6334 168.097 79.5534 168.19 79.46C168.297 79.3666 168.397 79.2534 168.49 79.12C168.557 79.0534 168.61 78.98 168.65 78.9C168.703 78.82 168.757 78.7466 168.81 78.68C168.89 78.5334 168.97 78.4134 169.05 78.32C169.303 77.8934 169.517 77.5934 169.69 77.42C169.983 77.1266 170.243 76.98 170.47 76.98C170.737 76.98 170.97 77.1266 171.17 77.42C171.383 77.7 171.61 78.1066 171.85 78.64C172.023 79.04 172.183 79.3466 172.33 79.56C172.477 79.76 172.617 79.86 172.75 79.86C172.883 79.86 173.037 79.78 173.21 79.62C173.37 79.4734 173.51 79.3934 173.63 79.38C173.71 79.4734 173.703 79.5934 173.61 79.74C173.517 79.8734 173.377 80 173.19 80.12C173.017 80.2534 172.843 80.36 172.67 80.44C172.497 80.52 172.363 80.5466 172.27 80.52C171.897 80.4134 171.603 80.2266 171.39 79.96C171.19 79.68 170.99 79.32 170.79 78.88C170.723 78.7334 170.663 78.6066 170.61 78.5C170.557 78.38 170.503 78.2866 170.45 78.22C170.357 78.0866 170.23 78.02 170.07 78.02C169.95 78.02 169.81 78.08 169.65 78.2C169.49 78.3334 169.33 78.4934 169.17 78.68C169.01 78.8534 168.857 79.0666 168.71 79.32C168.617 79.4534 168.543 79.56 168.49 79.64C168.45 79.7066 168.417 79.7534 168.39 79.78C168.323 79.8734 168.217 80.0066 168.07 80.18C167.937 80.3666 167.777 80.5934 167.59 80.86C167.523 80.94 167.417 81.0134 167.27 81.08C167.137 81.1466 167.003 81.18 166.87 81.18H166.81ZM169.25 75.44C169.29 75.4666 169.39 75.4066 169.55 75.26C169.71 75.1 169.89 74.9 170.09 74.66C170.303 74.4066 170.51 74.1466 170.71 73.88C170.923 73.6 171.09 73.3534 171.21 73.14C171.623 72.4334 171.83 71.9666 171.83 71.74C171.83 71.6466 171.797 71.58 171.73 71.54C171.597 71.4334 171.417 71.4934 171.19 71.72C170.963 71.9334 170.737 72.22 170.51 72.58C170.283 72.9266 170.09 73.2734 169.93 73.62C169.837 73.8334 169.737 74.0734 169.63 74.34C169.537 74.6066 169.457 74.8466 169.39 75.06C169.323 75.26 169.277 75.3866 169.25 75.44ZM177.219 80.54C177.193 80.54 177.166 80.5334 177.139 80.52C177.113 80.52 177.086 80.5134 177.059 80.5C176.873 80.4066 176.753 80.2734 176.699 80.1C176.646 79.9266 176.633 79.7066 176.659 79.44C176.686 79.3334 176.713 79.1466 176.739 78.88C176.779 78.6134 176.826 78.4 176.879 78.24L175.859 79.22L175.299 79.76C174.913 80.1466 174.593 80.34 174.339 80.34C174.233 80.34 174.146 80.3 174.079 80.22C173.959 80.0734 173.899 79.8934 173.899 79.68C173.899 79.4 173.973 79.1 174.119 78.78C174.266 78.46 174.439 78.1534 174.639 77.86C174.839 77.5534 175.019 77.3 175.179 77.1C175.579 76.6066 175.966 76.22 176.339 75.94C176.726 75.66 177.126 75.52 177.539 75.52C177.766 75.52 177.986 75.56 178.199 75.64C178.426 75.72 178.633 75.8534 178.819 76.04L178.839 76.06C178.839 76.1 178.806 76.14 178.739 76.18C178.713 76.2066 178.686 76.2266 178.659 76.24C178.646 76.2534 178.633 76.2666 178.619 76.28C178.459 76.44 178.279 76.7066 178.079 77.08C177.879 77.4534 177.706 77.8466 177.559 78.26C177.413 78.66 177.339 79.0066 177.339 79.3C177.339 79.5666 177.406 79.7466 177.539 79.84C177.606 79.88 177.679 79.9 177.759 79.9C177.933 79.9 178.173 79.7934 178.479 79.58C178.493 79.5666 178.519 79.5466 178.559 79.52C178.613 79.48 178.686 79.4266 178.779 79.36C178.886 79.28 178.973 79.24 179.039 79.24C179.106 79.24 179.139 79.2666 179.139 79.32C179.139 79.4 179.086 79.4934 178.979 79.6C178.899 79.6666 178.806 79.74 178.699 79.82C178.606 79.9 178.493 79.98 178.359 80.06C178.159 80.2066 177.953 80.32 177.739 80.4C177.526 80.4934 177.353 80.54 177.219 80.54ZM174.959 79.26C175.239 79.26 175.759 78.8466 176.519 78.02C176.719 77.7934 176.899 77.58 177.059 77.38C177.219 77.1666 177.366 76.96 177.499 76.76C177.739 76.3734 177.819 76.1066 177.739 75.96C177.699 75.88 177.619 75.84 177.499 75.84C177.353 75.84 177.153 75.92 176.899 76.08C176.646 76.2266 176.386 76.42 176.119 76.66C175.866 76.9 175.633 77.14 175.419 77.38C175.273 77.5666 175.126 77.8266 174.979 78.16C174.833 78.4934 174.759 78.7666 174.759 78.98C174.759 79.1666 174.826 79.26 174.959 79.26ZM179.667 80.32C179.427 80.32 179.307 80.2266 179.307 80.04C179.307 79.92 179.347 79.7666 179.427 79.58C179.52 79.3934 179.614 79.2134 179.707 79.04C179.96 78.5866 180.194 78.1466 180.407 77.72C180.62 77.2934 180.827 76.84 181.027 76.36C181.12 76.1466 181.26 76.04 181.447 76.04C181.647 76.04 181.707 76.16 181.627 76.4C181.547 76.6 181.467 76.78 181.387 76.94C181.014 77.7 180.827 78.2134 180.827 78.48C180.827 78.6 180.867 78.6734 180.947 78.7C181.134 78.5534 181.274 78.4466 181.367 78.38C181.46 78.3 181.514 78.2534 181.527 78.24C181.714 78.0934 181.92 77.9266 182.147 77.74C182.387 77.54 182.647 77.3134 182.927 77.06C183.367 76.66 183.734 76.46 184.027 76.46C184.387 76.46 184.54 76.7866 184.487 77.44C184.474 77.6934 184.474 77.94 184.487 78.18C184.5 78.2334 184.507 78.3134 184.507 78.42C184.507 78.5134 184.507 78.6266 184.507 78.76C184.507 78.8934 184.587 78.96 184.747 78.96C184.934 78.96 185.107 78.9066 185.267 78.8L185.707 78.5L186.147 78.22C186.174 78.2066 186.22 78.2 186.287 78.2C186.367 78.2 186.367 78.26 186.287 78.38C185.447 79.42 184.754 79.94 184.207 79.94C184.1 79.94 183.994 79.92 183.887 79.88C183.794 79.84 183.727 79.7266 183.687 79.54C183.647 79.34 183.62 79.1266 183.607 78.9C183.607 78.6734 183.607 78.5 183.607 78.38L183.627 77.72C183.627 77.44 183.554 77.3 183.407 77.3C183.06 77.3 182.207 78.0134 180.847 79.44C180.74 79.5734 180.574 79.7534 180.347 79.98C180.12 80.2066 179.894 80.32 179.667 80.32Z" fill="white"/>
<path d="M36.7178 30.912C35.8644 27.7974 34.6698 25.664 33.1338 24.512C31.6404 23.36 29.6778 22.784 27.2458 22.784C24.8138 22.784 22.9578 23.3814 21.6778 24.576C20.3978 25.728 19.7578 27.1574 19.7578 28.864C19.7578 31.6374 21.187 33.9626 24.0458 35.84L34.1578 42.432C38.595 45.3334 40.8138 48.768 40.8138 52.736C40.8138 55.936 39.5338 58.7306 36.9738 61.12C34.4564 63.4666 30.7658 64.64 25.9018 64.64C21.0378 64.64 16.7924 63.872 13.1658 62.336C13.8484 58.8374 14.1898 55.7014 14.1898 52.928L15.9178 52.16C16.5578 55.6586 17.5604 58.0694 18.9258 59.392C20.291 60.7146 22.403 61.376 25.2618 61.376C28.163 61.376 30.3604 60.672 31.8538 59.264C33.3898 57.856 34.1578 56.192 34.1578 54.272C34.1578 51.6694 32.771 49.472 29.9978 47.68L19.7578 40.96C15.8324 38.4 13.8698 35.1146 13.8698 31.104C13.8698 27.9894 15.0858 25.3014 17.5178 23.04C19.9498 20.736 23.1284 19.584 27.0538 19.584C28.3338 19.584 29.7418 19.7546 31.2778 20.096C32.8564 20.3946 34.051 20.544 34.8618 20.544C35.6724 20.544 36.611 20.416 37.6778 20.16V21.12C37.6778 24.2346 37.9338 27.2426 38.4458 30.144L36.7178 30.912ZM58.2422 24.576C57.901 27.0934 57.7302 31.6586 57.7302 38.272C57.7302 48.9814 57.8582 55.6374 58.1142 58.24L58.2422 59.584C58.3276 60.352 58.733 60.9066 59.4582 61.248C60.1836 61.5466 61.5916 61.9094 63.6822 62.336L63.4902 64.192C60.8022 64.064 57.8796 64 54.7222 64C51.565 64 48.6422 64.064 45.9542 64.192L45.7622 62.336C47.9382 61.9094 49.4102 61.5254 50.1782 61.184C50.9462 60.8426 51.373 60.3094 51.4582 59.584C51.7996 57.0666 51.9702 52.5014 51.9702 45.888C51.9702 35.1786 51.8422 28.5014 51.5862 25.856L51.4582 24.576C51.373 23.808 50.989 23.2746 50.3062 22.976C49.6236 22.6346 48.2582 22.2506 46.2102 21.824L46.4022 19.968C49.0902 20.096 51.9062 20.16 54.8502 20.16C57.7942 20.16 60.6102 20.096 63.2982 19.968L63.4902 21.824C61.4422 22.2506 60.077 22.6346 59.3942 22.976C58.7116 23.2746 58.3276 23.808 58.2422 24.576ZM81.7812 64.192C79.0932 64.064 76.448 64 73.8452 64C71.2852 64 68.6612 64.064 65.9732 64.192L65.7812 62.336C67.744 61.952 69.1306 61.5466 69.9412 61.12C70.752 60.6506 71.2852 60.0106 71.5412 59.2L84.2772 20.224L89.8452 19.584L104.757 59.584C105.056 60.3094 105.547 60.864 106.229 61.248C106.955 61.5894 108.277 61.952 110.197 62.336L110.005 64.192C107.317 64.064 104.395 64 101.237 64C98.08 64 95.1572 64.064 92.4692 64.192L92.2772 62.336C95.3066 61.7386 97.056 61.184 97.5252 60.672C97.7812 60.4586 97.9092 60.2454 97.9092 60.032C97.9092 59.776 96.736 55.936 94.3892 48.512H79.9252L76.4692 59.904C76.4692 60.4586 76.896 60.9066 77.7492 61.248C78.6026 61.5894 80.0106 61.952 81.9732 62.336L81.7812 64.192ZM86.9012 26.24H86.6452C86.3466 27.264 85.9626 28.5014 85.4932 29.952C85.0666 31.36 84.4052 33.5786 83.5092 36.608C82.6132 39.5946 81.7172 42.5814 80.8212 45.568H93.3652L86.9012 26.24ZM130.123 64.192C127.349 64.064 124.341 64 121.099 64C117.899 64 114.955 64.064 112.267 64.192L112.075 62.336C114.251 61.9094 115.723 61.5254 116.491 61.184C117.259 60.8426 117.685 60.3094 117.771 59.584C118.112 57.0666 118.283 52.5014 118.283 45.888C118.283 35.1786 118.155 28.5014 117.899 25.856L117.771 24.576C117.685 23.808 117.301 23.2746 116.619 22.976C115.936 22.6346 114.571 22.2506 112.523 21.824L112.715 19.968C115.403 20.096 118.261 20.16 121.291 20.16H132.363C136.501 20.16 139.637 21.1414 141.771 23.104C143.947 25.0666 145.035 27.4986 145.035 30.4C145.035 35.6054 142.155 39.6374 136.395 42.496L147.659 61.248C148.64 61.76 150.411 62.1226 152.971 62.336L152.779 64.192L141.963 64.576L130.635 43.392C129.184 43.4774 126.987 43.52 124.043 43.52C124.043 51.4134 124.213 56.448 124.555 58.624L124.747 59.584C124.832 60.352 125.237 60.9066 125.963 61.248C126.731 61.5466 128.181 61.9094 130.315 62.336L130.123 64.192ZM139.211 30.4C139.211 25.3654 135.669 22.848 128.587 22.848C127.051 22.848 126.048 22.9334 125.579 23.104C125.152 23.2746 124.853 23.6586 124.683 24.256C124.256 26.816 124.043 32.4054 124.043 41.024C128.736 41.024 132.085 40.8106 134.091 40.384C137.504 38.2934 139.211 34.9654 139.211 30.4ZM166.729 43.072C166.729 51.136 166.899 56.256 167.241 58.432L167.433 59.648C167.817 61.0134 169.971 61.696 173.897 61.696C175.859 61.696 177.417 61.632 178.569 61.504C179.763 61.3334 181.022 60.9706 182.345 60.416C184.819 59.4346 186.697 56.9814 187.977 53.056L189.705 53.824C188.937 56.1706 188.425 59.5626 188.169 64H162.569C160.137 64 157.577 64.064 154.889 64.192L154.697 62.336C156.873 61.9094 158.345 61.5254 159.113 61.184C159.881 60.8426 160.307 60.3094 160.393 59.584C160.777 57.1094 160.969 52.5654 160.969 45.952C160.969 35.2 160.841 28.5014 160.585 25.856L160.457 24.576C160.371 23.808 159.987 23.2746 159.305 22.976C158.622 22.6346 157.257 22.2506 155.209 21.824L155.401 19.968C158.089 20.096 163.145 20.16 170.569 20.16C177.993 20.16 183.454 20.032 186.953 19.776V20.736C186.953 24.1066 187.209 27.2426 187.721 30.144L185.993 30.912C184.883 27.4134 183.561 25.1946 182.025 24.256C180.489 23.3174 177.587 22.848 173.321 22.848C171.401 22.848 169.971 22.9334 169.033 23.104C168.094 23.2746 167.561 23.6586 167.433 24.256C167.006 27.0294 166.771 32.448 166.729 40.512C172.147 40.512 175.39 40.384 176.457 40.128C177.566 39.872 178.27 39.4026 178.569 38.72C178.91 38.0374 179.294 36.5866 179.721 34.368L181.961 34.624C181.619 37.0986 181.449 39.4666 181.449 41.728C181.449 43.9894 181.619 46.3786 181.961 48.896L179.721 49.216C179.294 46.9974 178.91 45.5466 178.569 44.864C178.27 44.1814 177.566 43.712 176.457 43.456C175.39 43.2 172.147 43.072 166.729 43.072ZM180.809 5.82399L169.737 16.192L167.817 15.872L176.393 3.13599C177.459 3.13599 178.441 3.41333 179.337 3.96799C180.233 4.47999 180.723 5.09865 180.809 5.82399Z" fill="white"/>
</svg>
